<svg xmlns="http://www.w3.org/2000/svg" width="1200" height="760" viewBox="0 0 1200 760" role="img" aria-labelledby="title desc">
<title id="title">Urban Basket website template preview</title><desc id="desc">A stylized preview of the E-commerce template.</desc>
<defs><linearGradient id="g" x1="0" y1="0" x2="1" y2="1"><stop offset="0" stop-color="#fff1e2"/><stop offset="1" stop-color="#ffffff"/></linearGradient><filter id="s"><feDropShadow dx="0" dy="14" stdDeviation="18" flood-color="#0f172a" flood-opacity=".12"/></filter></defs>
<rect width="1200" height="760" rx="34" fill="#eef1f4"/><rect x="42" y="34" width="1116" height="692" rx="26" fill="url(#g)" filter="url(#s)"/>
<rect x="42" y="34" width="1116" height="70" rx="26" fill="white"/><circle cx="82" cy="69" r="12" fill="#f57c00"/><rect x="104" y="58" width="134" height="20" rx="10" fill="#17191d" opacity=".88"/>
<rect x="747" y="60" width="68" height="14" rx="7" fill="#17191d" opacity=".18"/><rect x="834" y="60" width="68" height="14" rx="7" fill="#17191d" opacity=".18"/><rect x="921" y="60" width="68" height="14" rx="7" fill="#17191d" opacity=".18"/><rect x="1010" y="49" width="110" height="36" rx="18" fill="#f57c00"/>
<rect x="88" y="142" width="1024" height="300" rx="28" fill="#17191d"/><circle cx="965" cy="286" r="118" fill="#f57c00" opacity=".88"/><circle cx="1015" cy="235" r="62" fill="white" opacity=".14"/>
<text x="116" y="202" fill="#f57c00" font-family="Arial,sans-serif" font-size="18" font-weight="700" letter-spacing="2">E-COMMERCE</text>
<text x="116" y="275" fill="white" font-family="Arial,sans-serif" font-size="54" font-weight="800">Urban Basket</text><rect x="116" y="302" width="420" height="18" rx="9" fill="white" opacity=".72"/><rect x="116" y="336" width="330" height="14" rx="7" fill="white" opacity=".35"/><rect x="116" y="378" width="150" height="42" rx="21" fill="#f57c00"/>
<rect x="110" y="505" width="210" height="190" rx="22" fill="white" opacity=".98"/><rect x="126" y="521" width="178" height="104" rx="14" fill="#fff1e2"/><rect x="126" y="645" width="120" height="12" rx="6" fill="#17191d" opacity=".75"/><rect x="126" y="669" width="84" height="10" rx="5" fill="#f57c00" opacity=".8"/><rect x="360" y="505" width="210" height="190" rx="22" fill="white" opacity=".98"/><rect x="376" y="521" width="178" height="104" rx="14" fill="#fff1e2"/><rect x="376" y="645" width="120" height="12" rx="6" fill="#17191d" opacity=".75"/><rect x="376" y="669" width="84" height="10" rx="5" fill="#f57c00" opacity=".8"/><rect x="610" y="505" width="210" height="190" rx="22" fill="white" opacity=".98"/><rect x="626" y="521" width="178" height="104" rx="14" fill="#fff1e2"/><rect x="626" y="645" width="120" height="12" rx="6" fill="#17191d" opacity=".75"/><rect x="626" y="669" width="84" height="10" rx="5" fill="#f57c00" opacity=".8"/><rect x="860" y="505" width="210" height="190" rx="22" fill="white" opacity=".98"/><rect x="876" y="521" width="178" height="104" rx="14" fill="#fff1e2"/><rect x="876" y="645" width="120" height="12" rx="6" fill="#17191d" opacity=".75"/><rect x="876" y="669" width="84" height="10" rx="5" fill="#f57c00" opacity=".8"/>
<rect x="88" y="706" width="1024" height="1" fill="#17191d" opacity=".09"/></svg>